<mxfile host="app.diagrams.net" modified="2021-03-23T07:45:29.537Z" agent="5.0 (Macintosh; Intel Mac OS X 10_14_6) AppleWebKit/537.36 (KHTML, like Gecko) Chrome/89.0.4389.82 Safari/537.36" etag="Y-AfcA3h3LnV6trMAdSC" version="14.4.6" type="github">
  <diagram id="wmskmq6iXbEiBQbnxRAv" name="Page-1">
    <mxGraphModel dx="946" dy="614" grid="1" gridSize="10" guides="1" tooltips="1" connect="1" arrows="1" fold="1" page="1" pageScale="1" pageWidth="827" pageHeight="1169" math="0" shadow="0">
      <root>
        <mxCell id="0" />
        <mxCell id="1" parent="0" />
        <mxCell id="5n4lhrQsMyBDXj8TD-eI-1" value="&lt;pre style=&quot;color: rgb(8 , 8 , 8) ; font-family: &amp;#34;jetbrains mono&amp;#34; , monospace&quot;&gt;&lt;span style=&quot;color: rgb(0 , 0 , 0) ; background-color: rgb(255 , 255 , 255)&quot;&gt;&lt;font style=&quot;font-size: 11px&quot;&gt;EurekaServerAutoConfiguration&lt;/font&gt;&lt;/span&gt;&lt;/pre&gt;" style="rounded=0;whiteSpace=wrap;html=1;" vertex="1" parent="1">
          <mxGeometry x="60" y="145" width="500" height="50" as="geometry" />
        </mxCell>
        <mxCell id="5n4lhrQsMyBDXj8TD-eI-4" value="配置类，负责注入一些必要的配置" style="text;html=1;strokeColor=none;fillColor=none;align=center;verticalAlign=middle;whiteSpace=wrap;rounded=0;" vertex="1" parent="1">
          <mxGeometry x="190" y="90" width="100" height="20" as="geometry" />
        </mxCell>
        <mxCell id="5n4lhrQsMyBDXj8TD-eI-5" value="&lt;pre style=&quot;color: rgb(8 , 8 , 8) ; font-family: &amp;#34;jetbrains mono&amp;#34; , monospace&quot;&gt;&lt;span style=&quot;color: rgb(0 , 0 , 0) ; background-color: rgb(255 , 255 , 255)&quot;&gt;&lt;font style=&quot;font-size: 11px&quot;&gt;EurekaController&lt;/font&gt;&lt;/span&gt;&lt;/pre&gt;" style="rounded=1;whiteSpace=wrap;html=1;" vertex="1" parent="1">
          <mxGeometry x="60" y="290" width="120" height="60" as="geometry" />
        </mxCell>
        <mxCell id="5n4lhrQsMyBDXj8TD-eI-6" value="注入仪表盘" style="html=1;verticalAlign=bottom;endArrow=block;entryX=0.35;entryY=0;entryDx=0;entryDy=0;entryPerimeter=0;" edge="1" parent="1" target="5n4lhrQsMyBDXj8TD-eI-5">
          <mxGeometry width="80" relative="1" as="geometry">
            <mxPoint x="102" y="196" as="sourcePoint" />
            <mxPoint x="400" y="340" as="targetPoint" />
          </mxGeometry>
        </mxCell>
        <mxCell id="5n4lhrQsMyBDXj8TD-eI-7" value="&lt;pre style=&quot;color: rgb(8 , 8 , 8) ; font-family: &amp;#34;jetbrains mono&amp;#34; , monospace&quot;&gt;&lt;span style=&quot;color: rgb(0 , 0 , 0) ; background-color: rgb(255 , 255 , 255)&quot;&gt;&lt;font style=&quot;font-size: 11px&quot;&gt;PeerAwareInstanceRegistry&lt;/font&gt;&lt;/span&gt;&lt;/pre&gt;" style="rounded=1;whiteSpace=wrap;html=1;" vertex="1" parent="1">
          <mxGeometry x="240" y="290" width="190" height="60" as="geometry" />
        </mxCell>
        <mxCell id="5n4lhrQsMyBDXj8TD-eI-9" value="对等感知实例注册器（集群模式下注册服务使用的注册器）&lt;br&gt;eurakaserver集群中各个节点是对等的，没有主从之分" style="html=1;verticalAlign=bottom;endArrow=block;entryX=0.3;entryY=0.017;entryDx=0;entryDy=0;entryPerimeter=0;exitX=0.47;exitY=1;exitDx=0;exitDy=0;exitPerimeter=0;" edge="1" parent="1" source="5n4lhrQsMyBDXj8TD-eI-1" target="5n4lhrQsMyBDXj8TD-eI-7">
          <mxGeometry width="80" relative="1" as="geometry">
            <mxPoint x="300" y="200" as="sourcePoint" />
            <mxPoint x="112" y="300" as="targetPoint" />
          </mxGeometry>
        </mxCell>
        <mxCell id="5n4lhrQsMyBDXj8TD-eI-10" value="PeerEurekaNodes" style="rounded=1;whiteSpace=wrap;html=1;" vertex="1" parent="1">
          <mxGeometry x="240" y="410" width="120" height="60" as="geometry" />
        </mxCell>
        <mxCell id="5n4lhrQsMyBDXj8TD-eI-11" value="注入PeerEurekaNodes，辅助封装对&lt;br&gt;等节点相关的信息和操作，比如更新集群中的对等" style="html=1;verticalAlign=bottom;endArrow=block;" edge="1" parent="1">
          <mxGeometry x="0.3333" y="70" width="80" relative="1" as="geometry">
            <mxPoint x="300" y="350" as="sourcePoint" />
            <mxPoint x="300" y="410" as="targetPoint" />
            <mxPoint as="offset" />
          </mxGeometry>
        </mxCell>
        <mxCell id="5n4lhrQsMyBDXj8TD-eI-13" value="&lt;font style=&quot;font-size: 12px&quot;&gt;同时会监听环境更改的事件，发现eurakaserver变更，会重新拉取服务.&lt;br&gt;start方法中会新建线程池，启动守护线程，每隔&lt;/font&gt;&lt;font color=&quot;#1750eb&quot; face=&quot;JetBrains Mono, monospace&quot; style=&quot;font-size: 12px&quot;&gt;&lt;font style=&quot;font-size: 12px&quot;&gt;10*60*1000ms去进行一次同步&lt;/font&gt;&lt;br&gt;&lt;/font&gt;" style="text;html=1;strokeColor=none;fillColor=none;align=center;verticalAlign=middle;whiteSpace=wrap;rounded=0;" vertex="1" parent="1">
          <mxGeometry x="380" y="430" width="200" height="40" as="geometry" />
        </mxCell>
        <mxCell id="5n4lhrQsMyBDXj8TD-eI-15" value="&lt;pre style=&quot;color: rgb(8 , 8 , 8) ; font-family: &amp;#34;jetbrains mono&amp;#34; , monospace&quot;&gt;&lt;span style=&quot;color: rgb(0 , 0 , 0) ; background-color: rgb(255 , 255 , 255)&quot;&gt;&lt;font style=&quot;font-size: 11px&quot;&gt;EurekaServerContext&lt;/font&gt;&lt;/span&gt;&lt;/pre&gt;" style="rounded=1;whiteSpace=wrap;html=1;" vertex="1" parent="1">
          <mxGeometry x="240" y="530" width="140" height="60" as="geometry" />
        </mxCell>
        <mxCell id="5n4lhrQsMyBDXj8TD-eI-18" value="注入euaraka上下文" style="html=1;verticalAlign=bottom;endArrow=block;entryX=0.364;entryY=0.017;entryDx=0;entryDy=0;entryPerimeter=0;" edge="1" parent="1" target="5n4lhrQsMyBDXj8TD-eI-15">
          <mxGeometry width="80" relative="1" as="geometry">
            <mxPoint x="290" y="470" as="sourcePoint" />
            <mxPoint x="370" y="470" as="targetPoint" />
          </mxGeometry>
        </mxCell>
        <mxCell id="5n4lhrQsMyBDXj8TD-eI-19" value="实例化完之后定义的init方法中会去&lt;br&gt;调用上一步nodes中的start方法" style="text;html=1;align=center;verticalAlign=middle;resizable=0;points=[];autosize=1;" vertex="1" parent="1">
          <mxGeometry x="370" y="535" width="200" height="30" as="geometry" />
        </mxCell>
        <mxCell id="5n4lhrQsMyBDXj8TD-eI-20" value="&lt;pre style=&quot;color: rgb(8 , 8 , 8) ; font-family: &amp;#34;jetbrains mono&amp;#34; , monospace&quot;&gt;&lt;span style=&quot;color: rgb(0 , 0 , 0) ; background-color: rgb(255 , 255 , 255)&quot;&gt;&lt;font style=&quot;font-size: 11px&quot;&gt;EurekaServerBootstrap&lt;/font&gt;&lt;/span&gt;&lt;/pre&gt;" style="rounded=1;whiteSpace=wrap;html=1;" vertex="1" parent="1">
          <mxGeometry x="240" y="660" width="160" height="60" as="geometry" />
        </mxCell>
        <mxCell id="5n4lhrQsMyBDXj8TD-eI-21" value="eureka启动类" style="html=1;verticalAlign=bottom;endArrow=block;exitX=0.414;exitY=1.033;exitDx=0;exitDy=0;exitPerimeter=0;" edge="1" parent="1" source="5n4lhrQsMyBDXj8TD-eI-15">
          <mxGeometry width="80" relative="1" as="geometry">
            <mxPoint x="340" y="500" as="sourcePoint" />
            <mxPoint x="298" y="657" as="targetPoint" />
          </mxGeometry>
        </mxCell>
        <mxCell id="5n4lhrQsMyBDXj8TD-eI-22" value="&lt;pre style=&quot;color: rgb(8 , 8 , 8) ; font-family: &amp;#34;jetbrains mono&amp;#34; , monospace&quot;&gt;&lt;span style=&quot;color: rgb(0 , 0 , 0) ; background-color: rgb(255 , 255 , 255)&quot;&gt;&lt;font style=&quot;font-size: 11px&quot;&gt;FilterRegistrationBean&lt;/font&gt;&lt;/span&gt;&lt;/pre&gt;" style="rounded=1;whiteSpace=wrap;html=1;" vertex="1" parent="1">
          <mxGeometry x="490" y="290" width="160" height="60" as="geometry" />
        </mxCell>
        <mxCell id="5n4lhrQsMyBDXj8TD-eI-23" value="&lt;span style=&quot;background-color: rgb(255 , 255 , 255) ; font-size: 11px&quot;&gt;注入&lt;span style=&quot;color: rgb(0 , 98 , 122) ; font-family: &amp;#34;jetbrains mono&amp;#34; , monospace ; font-size: 11px&quot;&gt;jersey过滤器，&lt;br&gt;发布reset接口服务&lt;/span&gt;&lt;/span&gt;" style="html=1;verticalAlign=bottom;endArrow=block;entryX=0.35;entryY=0;entryDx=0;entryDy=0;entryPerimeter=0;" edge="1" parent="1">
          <mxGeometry width="80" relative="1" as="geometry">
            <mxPoint x="540" y="195" as="sourcePoint" />
            <mxPoint x="540" y="289" as="targetPoint" />
            <Array as="points">
              <mxPoint x="540" y="249" />
            </Array>
          </mxGeometry>
        </mxCell>
      </root>
    </mxGraphModel>
  </diagram>
</mxfile>
